<svg xmlns="http://www.w3.org/2000/svg" xmlns:xlink="http://www.w3.org/1999/xlink" width="844" height="664" viewBox="0 0 633.33 498.19"><g id="graph0" class="graph" transform="scale(4.16667 4.16667) rotate(0) translate(4 115.566)"><title>%3</title><polygon fill="#fff" stroke="none" points="-4 4 -4 -115.566 148 -115.566 148 4 -4 4"/><g id="node2" class="node"><title>table0</title><polygon fill="none" stroke="#000" points="0 -75.566 0 -111.566 54 -111.566 54 -75.566 0 -75.566"/><text x="27" y="-89.866" font-family="Times,serif" font-size="14" text-anchor="middle">a</text></g><g id="node4" class="node"><title>table1</title><polygon fill="none" stroke="#000" points="90 -75.566 90 -111.566 144 -111.566 144 -75.566 90 -75.566"/><text x="104" y="-89.866" font-family="Times,serif" font-size="14" text-anchor="middle">5</text><polyline fill="none" stroke="#000" points="118 -75.566 118 -111.566"/></g><g id="node3" class="node"><title>table2</title><polygon fill="none" stroke="#000" points="90 -20.566 90 -56.566 144 -56.566 144 -20.566 90 -20.566"/><text x="117" y="-34.866" font-family="Times,serif" font-size="14" text-anchor="middle">b</text></g><g id="node1" class="node"><title>table3</title><polygon fill="none" stroke="#000" points="0 -20.566 0 -56.566 54 -56.566 54 -20.566 0 -20.566"/><text x="16" y="-34.866" font-family="Times,serif" font-size="14" text-anchor="middle">10</text><polyline fill="none" stroke="#000" points="32 -20.566 32 -56.566"/></g><g id="edge1" class="edge"><title>table0:ref-&gt;table1:data</title><path fill="none" stroke="#000" d="M54,-93.5656C66,-93.5656 71.25,-93.5656 78.875,-93.5656"/><polygon fill="#000" stroke="#000" points="79 -97.066 89 -93.566 79 -90.066 79 -97.066"/></g><g id="edge2" class="edge"><title>table1:ref-&gt;table2:data</title><path fill="none" stroke="#000" d="M123.1403,-65.1315C127.6523,-67.3402 133,-68.812 133,-75"/><polygon fill="#000" stroke="#000" points="120.233 -67.09 117 -57 125.819 -62.871 120.233 -67.09"/></g><g id="edge3" class="edge"><title>table2:ref-&gt;table3:data</title><path fill="none" stroke="#000" d="M117,-20.5656C117,2.6957 43.7375,5.56532 21.2401,-10.9567"/><polygon fill="#000" stroke="#000" points="18.21 -9.204 16 -19.566 24.189 -12.843 18.21 -9.204"/></g><g id="edge4" class="edge"><title>table3:ref-&gt;table0:data</title><path fill="none" stroke="#000" d="M33.1409,-66.8685C37.6523,-64.6598 43,-63.188 43,-57"/><polygon fill="#000" stroke="#000" points="30.233 -64.91 27 -75 35.819 -69.129 30.233 -64.91"/></g></g></svg>