<svg xmlns="http://www.w3.org/2000/svg" xmlns:xlink="http://www.w3.org/1999/xlink" viewBox="0 0 1000 700"><g id="graph0" class="graph" transform="scale(4.1667 4.1667) rotate(0) translate(4 156)"><title>%3</title><polygon fill="#fff" stroke="transparent" points="-4 4 -4 -156 174 -156 174 4 -4 4"/><g id="node1" class="node"><title>table0</title><polyline fill="none" stroke="#000" points="8 -128 162 -128"/><text x="70.607" y="-133.8" fill="#000" font-family="Times,serif" font-size="14" text-anchor="start">Cons</text><polygon fill="none" stroke="#000" points="8 -4 8 -128 31 -128 31 -4 8 -4"/><text x="10.555" y="-61.8" fill="#000" font-family="Times,serif" font-size="14" text-anchor="start">i32</text><polygon fill="none" stroke="#000" points="31 -4 31 -128 162 -128 162 -4 31 -4"/><polyline fill="none" stroke="#000" points="34 -105 159 -105"/><text x="82.107" y="-110.8" fill="#000" font-family="Times,serif" font-size="14" text-anchor="start">Cons</text><polygon fill="none" stroke="#000" points="34 -7 34 -105 57 -105 57 -7 34 -7"/><text x="36.555" y="-51.8" fill="#000" font-family="Times,serif" font-size="14" text-anchor="start">i32</text><polygon fill="none" stroke="#000" points="57 -7 57 -105 159 -105 159 -7 57 -7"/><polyline fill="none" stroke="#000" points="60 -82 156 -82"/><text x="93.607" y="-87.8" fill="#000" font-family="Times,serif" font-size="14" text-anchor="start">Cons</text><polygon fill="none" stroke="#000" points="60 -10 60 -82 83 -82 83 -10 60 -10"/><text x="62.555" y="-41.8" fill="#000" font-family="Times,serif" font-size="14" text-anchor="start">i32</text><polygon fill="none" stroke="#000" points="83 -10 83 -82 156 -82 156 -10 83 -10"/><polyline fill="none" stroke="#000" points="86 -59 153 -59"/><text x="105.107" y="-64.8" fill="#000" font-family="Times,serif" font-size="14" text-anchor="start">Cons</text><polygon fill="none" stroke="#000" points="86 -13 86 -59 109 -59 109 -13 86 -13"/><text x="88.555" y="-31.8" fill="#000" font-family="Times,serif" font-size="14" text-anchor="start">i32</text><polygon fill="none" stroke="#000" points="109 -13 109 -59 153 -59 153 -13 109 -13"/><polyline fill="none" stroke="#000" points="112 -36 150 -36"/><text x="116.607" y="-41.8" fill="#000" font-family="Times,serif" font-size="14" text-anchor="start">Cons</text><polygon fill="none" stroke="#000" points="112 -16 112 -36 135 -36 135 -16 112 -16"/><text x="114.555" y="-21.8" fill="#000" font-family="Times,serif" font-size="14" text-anchor="start">i32</text><polygon fill="none" stroke="#000" points="135 -16 135 -36 150 -36 150 -16 135 -16"/><text x="137.51" y="-21.8" fill="#000" font-family="Times,serif" font-size="14" text-anchor="start">∞</text></g></g></svg>