<svg xmlns="http://www.w3.org/2000/svg" xmlns:xlink="http://www.w3.org/1999/xlink" width="250pt" viewBox="0 0 363 342"><g id="graph0" class="graph" transform="scale(4.1667 4.1667) rotate(0) translate(4 78)"><title>%3</title><polygon fill="#fff" stroke="transparent" points="-4 4 -4 -78 83 -78 83 4 -4 4"/><g id="node1" class="node"><title>table0</title><polyline fill="none" stroke="#000" points="8.5 -50 71.5 -50"/><text x="25.607" y="-55.8" fill="#000" font-family="Times,serif" font-size="14" text-anchor="start">Cons</text><polygon fill="none" stroke="#000" points="8.5 -4 8.5 -50 31.5 -50 31.5 -4 8.5 -4"/><text x="11.055" y="-22.8" fill="#000" font-family="Times,serif" font-size="14" text-anchor="start">i32</text><polygon fill="none" stroke="#000" points="31.5 -4 31.5 -50 71.5 -50 71.5 -4 31.5 -4"/><polyline fill="none" stroke="#000" points="34.5 -27 68.5 -27"/><text x="39.831" y="-32.8" fill="#000" font-family="Times,serif" font-size="14" text-anchor="start">Box</text><polygon fill="none" stroke="#000" points="34.5 -7 34.5 -27 68.5 -27 68.5 -7 34.5 -7"/><text x="37.117" y="-12.8" fill="#000" font-family="Times,serif" font-size="14" text-anchor="start">usize</text></g></g></svg>