<svg xmlns="http://www.w3.org/2000/svg" xmlns:xlink="http://www.w3.org/1999/xlink" viewBox="0 0 1000 1300"><g id="graph0" class="graph" transform="scale(4.1667 4.1667) rotate(0) translate(4 298)"><title>%3</title><polygon fill="#fff" stroke="transparent" points="-4 4 -4 -298 233 -298 233 4 -4 4"/><g id="node1" class="node"><title>table0</title><polyline fill="none" stroke="#000" points="8 -124 96 -124"/><text x="45.776" y="-129.8" fill="#000" font-family="Times,serif" font-size="14" text-anchor="start">s2</text><polygon fill="none" stroke="#000" points="8 -104 8 -124 60 -124 60 -104 8 -104"/><text x="18.841" y="-109.8" fill="#000" font-family="Times,serif" font-size="14" text-anchor="start">name</text><polygon fill="none" stroke="#000" points="60 -104 60 -124 96 -124 96 -104 60 -104"/><text x="62.841" y="-109.8" fill="#000" font-family="Times,serif" font-size="14" text-anchor="start">value</text><polygon fill="none" stroke="#000" points="8 -84 8 -104 60 -104 60 -84 8 -84"/><text x="26.224" y="-89.8" fill="#000" font-family="Times,serif" font-size="14" text-anchor="start">ptr</text><polygon fill="none" stroke="#000" points="60 -84 60 -104 96 -104 96 -84 60 -84"/><polygon fill="none" stroke="#000" points="8 -64 8 -84 60 -84 60 -64 8 -64"/><text x="25.448" y="-69.8" fill="#000" font-family="Times,serif" font-size="14" text-anchor="start">len</text><polygon fill="none" stroke="#000" points="60 -64 60 -84 96 -84 96 -64 60 -64"/><text x="74.5" y="-69.8" fill="#000" font-family="Times,serif" font-size="14" text-anchor="start">5</text><polygon fill="none" stroke="#000" points="8 -44 8 -64 60 -64 60 -44 8 -44"/><text x="10.683" y="-49.8" fill="#000" font-family="Times,serif" font-size="14" text-anchor="start">capacity</text><polygon fill="none" stroke="#000" points="60 -44 60 -64 96 -64 96 -44 60 -44"/><text x="74.5" y="-49.8" fill="#000" font-family="Times,serif" font-size="14" text-anchor="start">5</text></g><g id="node2" class="node"><title>table1</title><polygon fill="none" stroke="#000" points="148.5 -104 148.5 -124 185.5 -124 185.5 -104 148.5 -104"/><text x="151.448" y="-109.8" fill="#000" font-family="Times,serif" font-size="14" text-anchor="start">index</text><polygon fill="none" stroke="#000" points="185.5 -104 185.5 -124 221.5 -124 221.5 -104 185.5 -104"/><text x="188.341" y="-109.8" fill="#000" font-family="Times,serif" font-size="14" text-anchor="start">value</text><polygon fill="none" stroke="#000" points="148.5 -84 148.5 -104 185.5 -104 185.5 -84 148.5 -84"/><text x="163.5" y="-89.8" fill="#000" font-family="Times,serif" font-size="14" text-anchor="start">0</text><polygon fill="none" stroke="#000" points="185.5 -84 185.5 -104 221.5 -104 221.5 -84 185.5 -84"/><text x="200" y="-89.8" fill="#000" font-family="Times,serif" font-size="14" text-anchor="start">h</text><polygon fill="none" stroke="#000" points="148.5 -64 148.5 -84 185.5 -84 185.5 -64 148.5 -64"/><text x="163.5" y="-69.8" fill="#000" font-family="Times,serif" font-size="14" text-anchor="start">1</text><polygon fill="none" stroke="#000" points="185.5 -64 185.5 -84 221.5 -84 221.5 -64 185.5 -64"/><text x="200.393" y="-69.8" fill="#000" font-family="Times,serif" font-size="14" text-anchor="start">e</text><polygon fill="none" stroke="#000" points="148.5 -44 148.5 -64 185.5 -64 185.5 -44 148.5 -44"/><text x="163.5" y="-49.8" fill="#000" font-family="Times,serif" font-size="14" text-anchor="start">2</text><polygon fill="none" stroke="#000" points="185.5 -44 185.5 -64 221.5 -64 221.5 -44 185.5 -44"/><text x="201.555" y="-49.8" fill="#000" font-family="Times,serif" font-size="14" text-anchor="start">l</text><polygon fill="none" stroke="#000" points="148.5 -24 148.5 -44 185.5 -44 185.5 -24 148.5 -24"/><text x="163.5" y="-29.8" fill="#000" font-family="Times,serif" font-size="14" text-anchor="start">3</text><polygon fill="none" stroke="#000" points="185.5 -24 185.5 -44 221.5 -44 221.5 -24 185.5 -24"/><text x="201.555" y="-29.8" fill="#000" font-family="Times,serif" font-size="14" text-anchor="start">l</text><polygon fill="none" stroke="#000" points="148.5 -4 148.5 -24 185.5 -24 185.5 -4 148.5 -4"/><text x="163.5" y="-9.8" fill="#000" font-family="Times,serif" font-size="14" text-anchor="start">4</text><polygon fill="none" stroke="#000" points="185.5 -4 185.5 -24 221.5 -24 221.5 -4 185.5 -4"/><text x="200" y="-9.8" fill="#000" font-family="Times,serif" font-size="14" text-anchor="start">o</text></g><g id="edge1" class="edge"><title>table0:c-&gt;table1:pointee</title><path fill="none" stroke="#000" d="M78,-94C78,-94 109.3406,-94 138.3797,-94"/><polygon fill="#000" stroke="#000" points="138.5 -97.5 148.5 -94 138.5 -90.5 138.5 -97.5"/></g><g id="node3" class="node"><title>table3</title><polyline fill="none" stroke="#000" points="8 -270 96 -270"/><text x="45.776" y="-275.8" fill="#000" font-family="Times,serif" font-size="14" text-anchor="start">s1</text><polygon fill="none" stroke="#000" points="8 -250 8 -270 60 -270 60 -250 8 -250"/><text x="18.841" y="-255.8" fill="#000" font-family="Times,serif" font-size="14" text-anchor="start">name</text><polygon fill="none" stroke="#000" points="60 -250 60 -270 96 -270 96 -250 60 -250"/><text x="62.841" y="-255.8" fill="#000" font-family="Times,serif" font-size="14" text-anchor="start">value</text><polygon fill="none" stroke="#000" points="8 -230 8 -250 60 -250 60 -230 8 -230"/><text x="26.224" y="-235.8" fill="#000" font-family="Times,serif" font-size="14" text-anchor="start">ptr</text><polygon fill="none" stroke="#000" points="60 -230 60 -250 96 -250 96 -230 60 -230"/><polygon fill="none" stroke="#000" points="8 -210 8 -230 60 -230 60 -210 8 -210"/><text x="25.448" y="-215.8" fill="#000" font-family="Times,serif" font-size="14" text-anchor="start">len</text><polygon fill="none" stroke="#000" points="60 -210 60 -230 96 -230 96 -210 60 -210"/><text x="74.5" y="-215.8" fill="#000" font-family="Times,serif" font-size="14" text-anchor="start">5</text><polygon fill="none" stroke="#000" points="8 -190 8 -210 60 -210 60 -190 8 -190"/><text x="10.683" y="-195.8" fill="#000" font-family="Times,serif" font-size="14" text-anchor="start">capacity</text><polygon fill="none" stroke="#000" points="60 -190 60 -210 96 -210 96 -190 60 -190"/><text x="74.5" y="-195.8" fill="#000" font-family="Times,serif" font-size="14" text-anchor="start">5</text></g><g id="node4" class="node"><title>table4</title><polygon fill="none" stroke="#000" points="148.5 -250 148.5 -270 185.5 -270 185.5 -250 148.5 -250"/><text x="151.448" y="-255.8" fill="#000" font-family="Times,serif" font-size="14" text-anchor="start">index</text><polygon fill="none" stroke="#000" points="185.5 -250 185.5 -270 221.5 -270 221.5 -250 185.5 -250"/><text x="188.341" y="-255.8" fill="#000" font-family="Times,serif" font-size="14" text-anchor="start">value</text><polygon fill="none" stroke="#000" points="148.5 -230 148.5 -250 185.5 -250 185.5 -230 148.5 -230"/><text x="163.5" y="-235.8" fill="#000" font-family="Times,serif" font-size="14" text-anchor="start">0</text><polygon fill="none" stroke="#000" points="185.5 -230 185.5 -250 221.5 -250 221.5 -230 185.5 -230"/><text x="200" y="-235.8" fill="#000" font-family="Times,serif" font-size="14" text-anchor="start">h</text><polygon fill="none" stroke="#000" points="148.5 -210 148.5 -230 185.5 -230 185.5 -210 148.5 -210"/><text x="163.5" y="-215.8" fill="#000" font-family="Times,serif" font-size="14" text-anchor="start">1</text><polygon fill="none" stroke="#000" points="185.5 -210 185.5 -230 221.5 -230 221.5 -210 185.5 -210"/><text x="200.393" y="-215.8" fill="#000" font-family="Times,serif" font-size="14" text-anchor="start">e</text><polygon fill="none" stroke="#000" points="148.5 -190 148.5 -210 185.5 -210 185.5 -190 148.5 -190"/><text x="163.5" y="-195.8" fill="#000" font-family="Times,serif" font-size="14" text-anchor="start">2</text><polygon fill="none" stroke="#000" points="185.5 -190 185.5 -210 221.5 -210 221.5 -190 185.5 -190"/><text x="201.555" y="-195.8" fill="#000" font-family="Times,serif" font-size="14" text-anchor="start">l</text><polygon fill="none" stroke="#000" points="148.5 -170 148.5 -190 185.5 -190 185.5 -170 148.5 -170"/><text x="163.5" y="-175.8" fill="#000" font-family="Times,serif" font-size="14" text-anchor="start">3</text><polygon fill="none" stroke="#000" points="185.5 -170 185.5 -190 221.5 -190 221.5 -170 185.5 -170"/><text x="201.555" y="-175.8" fill="#000" font-family="Times,serif" font-size="14" text-anchor="start">l</text><polygon fill="none" stroke="#000" points="148.5 -150 148.5 -170 185.5 -170 185.5 -150 148.5 -150"/><text x="163.5" y="-155.8" fill="#000" font-family="Times,serif" font-size="14" text-anchor="start">4</text><polygon fill="none" stroke="#000" points="185.5 -150 185.5 -170 221.5 -170 221.5 -150 185.5 -150"/><text x="200" y="-155.8" fill="#000" font-family="Times,serif" font-size="14" text-anchor="start">o</text></g><g id="edge2" class="edge"><title>table3:c-&gt;table4:pointee</title><path fill="none" stroke="#000" d="M78,-240C78,-240 109.3406,-240 138.3797,-240"/><polygon fill="#000" stroke="#000" points="138.5 -243.5 148.5 -240 138.5 -236.5 138.5 -243.5"/></g></g></svg>