<svg xmlns="http://www.w3.org/2000/svg" xmlns:xlink="http://www.w3.org/1999/xlink" width="1000" viewBox="0 0 2500 700"><g id="graph0" class="graph" transform="scale(4.1667 4.1667) rotate(0) translate(4 148)"><title>%3</title><polygon fill="#fff" stroke="transparent" points="-4 4 -4 -148 418 -148 418 4 -4 4"/><g id="node1" class="node"><title>table4</title><text x="21" y="-121.8" fill="#000" font-family="Times,serif" font-size="14" text-anchor="start">b</text></g><g id="node2" class="node"><title>table5</title><polygon fill="none" stroke="#000" points="104 -116 104 -136 117 -136 117 -116 104 -116"/><text x="107" y="-121.8" fill="#000" font-family="Times,serif" font-size="14" text-anchor="start">3</text><polygon fill="none" stroke="#000" points="117 -116 117 -136 130 -136 130 -116 117 -116"/></g><g id="edge4" class="edge"><title>table4:c-&gt;table5:pte4</title><path fill="none" stroke="#000" d="M34,-126C34,-126 65.1184,-126 93.9514,-126"/><polygon fill="#000" stroke="#000" points="94 -129.5 104 -126 94 -122.5 94 -129.5"/></g><g id="node4" class="node"><title>table1</title><polygon fill="none" stroke="#000" points="194 -62 194 -82 207 -82 207 -62 194 -62"/><text x="197" y="-67.8" fill="#000" font-family="Times,serif" font-size="14" text-anchor="start">5</text><polygon fill="none" stroke="#000" points="207 -62 207 -82 220 -82 220 -62 207 -62"/></g><g id="edge5" class="edge"><title>table5:c-&gt;table1:pte0</title><path fill="none" stroke="#000" d="M124,-126C124,-126 149.4376,-81.2672 183.6334,-73.2293"/><polygon fill="#000" stroke="#000" points="184.482 -76.653 194 -72 183.657 -69.702 184.482 -76.653"/></g><g id="node3" class="node"><title>table0</title><text x="110.893" y="-67.8" fill="#000" font-family="Times,serif" font-size="14" text-anchor="start">a</text></g><g id="edge1" class="edge"><title>table0:c-&gt;table1:pte0</title><path fill="none" stroke="#000" d="M123,-72C123,-72 154.5629,-72 183.8079,-72"/><polygon fill="#000" stroke="#000" points="184 -75.5 194 -72 184 -68.5 184 -75.5"/></g><g id="node5" class="node"><title>table2</title><polygon fill="none" stroke="#000" points="281 -62 281 -82 301 -82 301 -62 281 -62"/><text x="284" y="-67.8" fill="#000" font-family="Times,serif" font-size="14" text-anchor="start">10</text><polygon fill="none" stroke="#000" points="301 -62 301 -82 314 -82 314 -62 301 -62"/></g><g id="edge2" class="edge"><title>table1:c-&gt;table2:pte1</title><path fill="none" stroke="#000" d="M214,-72C214,-72 243.2667,-72 270.6585,-72"/><polygon fill="#000" stroke="#000" points="271 -75.5 281 -72 271 -68.5 271 -75.5"/></g><g id="node6" class="node"><title>table3</title><polygon fill="none" stroke="#000" points="376 -62 376 -82 399 -82 399 -62 376 -62"/><text x="378.555" y="-67.8" fill="#000" font-family="Times,serif" font-size="14" text-anchor="start">Nil</text></g><g id="edge3" class="edge"><title>table2:c-&gt;table3:pte2</title><path fill="none" stroke="#000" d="M308,-72C308,-72 341.8867,-72 365.5509,-72"/><polygon fill="#000" stroke="#000" points="365.85 -75.5 375.85 -72 365.85 -68.5 365.85 -75.5"/></g><g id="node7" class="node"><title>table6</title><text x="20.893" y="-13.8" fill="#000" font-family="Times,serif" font-size="14" text-anchor="start">c</text></g><g id="node8" class="node"><title>table7</title><polygon fill="none" stroke="#000" points="104 -8 104 -28 117 -28 117 -8 104 -8"/><text x="107" y="-13.8" fill="#000" font-family="Times,serif" font-size="14" text-anchor="start">4</text><polygon fill="none" stroke="#000" points="117 -8 117 -28 130 -28 130 -8 117 -8"/></g><g id="edge6" class="edge"><title>table6:c-&gt;table7:pte6</title><path fill="none" stroke="#000" d="M33,-18C33,-18 64.5629,-18 93.8079,-18"/><polygon fill="#000" stroke="#000" points="94 -21.5 104 -18 94 -14.5 94 -21.5"/></g><g id="edge7" class="edge"><title>table7:c-&gt;table1:pte0</title><path fill="none" stroke="#000" d="M124,-18C124,-18 149.4376,-62.7328 183.6334,-70.7707"/><polygon fill="#000" stroke="#000" points="183.657 -74.298 194 -72 184.482 -67.347 183.657 -74.298"/></g></g></svg>